<svg width="40" height="10" viewBox="0 0 40 10" fill="none" xmlns="http://www.w3.org/2000/svg">
<g clip-path="url(#clip0)">
<path fill-rule="evenodd" clip-rule="evenodd" d="M8.72247 9.97479V9.11685C8.72247 8.03902 8.72228 6.96117 8.72247 5.88314V5.75125C8.72247 5.3311 8.62805 4.78366 8.4914 4.41743C8.31876 3.95458 8.16629 3.64067 7.87095 3.24057C7.83231 3.18845 7.78953 3.14415 7.75447 3.09544C7.6919 3.00844 7.47968 2.79355 7.37714 2.70115C7.32965 2.65845 7.28441 2.61876 7.23749 2.58048C7.1457 2.50531 7.04637 2.43575 6.94497 2.36519C6.7631 2.23851 6.49264 2.09718 6.28833 2.0106C6.0501 1.90956 5.79905 1.83179 5.51351 1.78168C5.40419 1.76263 5.22024 1.73878 5.0329 1.72656H4.62278C4.60468 1.72836 4.58716 1.73077 4.57057 1.73338C4.43261 1.75523 4.33178 1.75061 4.12728 1.7883C3.84513 1.84022 3.61935 1.91579 3.36038 2.02563C3.0739 2.14711 2.81719 2.30786 2.56672 2.49168C2.51263 2.53137 2.47097 2.56364 2.42178 2.60674C2.16903 2.82703 2.10967 2.8994 1.91046 3.12751C1.82828 3.22132 1.76345 3.31795 1.69145 3.42118C1.60193 3.54966 1.52786 3.68437 1.45474 3.82449C1.43721 3.85797 1.42797 3.86979 1.41063 3.90647C1.38141 3.96862 1.3524 4.02333 1.32695 4.08647C1.27588 4.21376 1.22744 4.32441 1.18296 4.45971C1.055 4.84859 0.982995 5.25992 0.967163 5.67505V6.02364C0.992235 6.68333 1.1596 7.33902 1.47265 7.91632C1.58045 8.11537 1.63926 8.21078 1.76535 8.38879L1.99284 8.67323C2.03788 8.72053 2.07463 8.76003 2.1195 8.80773C2.64948 9.3714 3.33873 9.74405 4.07189 9.9016C4.26696 9.94369 4.53063 9.97476 4.74041 9.97476H4.76624H4.94076C5.10813 9.97376 5.24138 9.96654 5.45549 9.92806C5.81302 9.86372 5.91912 9.81902 6.23237 9.70135C6.35016 9.65705 6.4657 9.5953 6.57369 9.53797C6.84509 9.39384 7.08558 9.21985 7.3208 9.02221C7.43276 8.92799 7.61407 8.74599 7.70774 8.63814L7.94145 8.34849V9.97476H8.72248L8.72247 9.97479ZM4.84463 3.00083C5.14676 3.00083 5.39158 3.26142 5.39158 3.58234C5.39158 3.90367 5.14674 4.16446 4.84463 4.16446C4.54289 4.16446 4.29806 3.90367 4.29806 3.58234C4.29806 3.26142 4.54289 3.00083 4.84463 3.00083ZM4.84463 5.26935C5.14676 5.26935 5.39158 5.52953 5.39158 5.85086C5.39158 6.17219 5.14674 6.43257 4.84463 6.43257C4.54289 6.43257 4.29806 6.17218 4.29806 5.85086C4.29806 5.52953 4.54289 5.26935 4.84463 5.26935ZM4.84463 7.53747C5.14676 7.53747 5.39158 7.79826 5.39158 8.11939C5.39158 8.44032 5.14674 8.70071 4.84463 8.70071C4.54289 8.70071 4.29806 8.44032 4.29806 8.11939C4.29806 7.79826 4.54289 7.53747 4.84463 7.53747Z" fill="white"/>
<path d="M13.382 2.96879C13.8404 2.96879 14.2722 3.06019 14.6776 3.24281C15.083 3.42582 15.4334 3.67418 15.7287 3.98809C16.0239 4.3022 16.2576 4.67504 16.4296 5.10602C16.6013 5.53719 16.6871 5.99662 16.6871 6.48413C16.6871 6.98105 16.6013 7.4425 16.4296 7.86906C16.2576 8.29563 16.0239 8.66606 15.7287 8.97997C15.4334 9.29408 15.083 9.54245 14.6776 9.72525C14.2722 9.90786 13.8404 9.99947 13.382 9.99947C12.9148 9.99947 12.4808 9.90786 12.0797 9.72525C11.6788 9.54244 11.3305 9.29408 11.0354 8.97997C10.74 8.66606 10.5065 8.29563 10.3346 7.86906C10.1627 7.44249 10.0768 6.98105 10.0768 6.48413V1.70312H10.7378V4.37496C11.0376 3.953 11.421 3.61323 11.888 3.35546C12.3552 3.09768 12.8532 2.96879 13.382 2.96879ZM13.382 9.29629C13.7435 9.29629 14.0849 9.22132 14.4068 9.07137C14.7283 8.92143 15.0082 8.71978 15.246 8.46681C15.4841 8.21364 15.6735 7.91597 15.8147 7.5738C15.9556 7.23183 16.0261 6.86841 16.0261 6.48414C16.0261 6.09967 15.9556 5.73645 15.8147 5.39427C15.6735 5.05231 15.4841 4.75463 15.246 4.50146C15.0082 4.24848 14.7283 4.04683 14.4068 3.8969C14.0849 3.74696 13.7435 3.67198 13.382 3.67198C13.0207 3.67198 12.679 3.74696 12.3575 3.8969C12.0356 4.04684 11.7559 4.2485 11.5179 4.50146C11.2798 4.75463 11.0904 5.05231 10.9494 5.39427C10.8083 5.73645 10.7378 6.09967 10.7378 6.48414C10.7378 6.86841 10.8083 7.23183 10.9494 7.5738C11.0904 7.91598 11.2798 8.21364 11.5179 8.46681C11.7559 8.71979 12.0356 8.92145 12.3575 9.07137C12.679 9.22132 13.0207 9.29629 13.382 9.29629ZM20.7856 9.29629C21.3497 9.29629 21.8479 9.13712 22.2799 8.8182C22.7116 8.49948 23.0288 8.07292 23.2316 7.53872H23.9588C23.8442 7.89492 23.6834 8.22306 23.4761 8.52293C23.2691 8.82302 23.0266 9.0806 22.7492 9.29628C22.4715 9.51197 22.1653 9.68295 21.8303 9.80943C21.4952 9.93592 21.1473 9.99946 20.7856 9.99946C20.3186 9.99946 19.8845 9.90785 19.4835 9.72524C19.0824 9.54242 18.7343 9.29407 18.4392 8.97996C18.1438 8.66605 17.9101 8.29561 17.7384 7.86904C17.5665 7.44247 17.4806 6.98104 17.4806 6.48412C17.4806 5.99661 17.5665 5.53718 17.7384 5.10601C17.9101 4.67503 18.1438 4.30218 18.4392 3.98808C18.7343 3.67417 19.0824 3.42581 19.4835 3.2428C19.8846 3.06019 20.3186 2.96877 20.7856 2.96877C21.2442 2.96877 21.676 3.06018 22.0814 3.2428C22.4868 3.42581 22.8372 3.67417 23.1325 3.98808C23.4277 4.30218 23.6614 4.67503 23.8332 5.10601C24.0051 5.53718 24.0909 5.99661 24.0909 6.48412V6.83572H22.9011H18.1415C18.1943 7.19192 18.2982 7.51986 18.4521 7.81993C18.6065 8.11981 18.8025 8.3776 19.0406 8.59328C19.2784 8.80897 19.5453 8.97995 19.8404 9.10643C20.1358 9.23292 20.4509 9.29626 20.7856 9.29626L20.7856 9.29629ZM20.7856 3.67198C20.4509 3.67198 20.1358 3.73513 19.8405 3.86162C19.5453 3.9881 19.2784 4.15929 19.0406 4.37497C18.8025 4.59045 18.6065 4.85065 18.4522 5.15534C18.2982 5.46002 18.1943 5.78576 18.1416 6.13254H23.4299C23.377 5.78576 23.2735 5.46002 23.1191 5.15534C22.9652 4.85065 22.7688 4.59047 22.5309 4.37497C22.2929 4.15928 22.0241 3.9881 21.7244 3.86162C21.4248 3.73513 21.1119 3.67198 20.7857 3.67198H20.7856ZM25.5453 9.99949H24.8842V1.70314H25.5453V9.99949ZM26.9996 9.99949H26.3386V1.70314H26.9996V9.99949ZM31.0981 2.9688C31.5567 2.9688 31.9885 3.0602 32.3939 3.24282C32.7993 3.42584 33.1497 3.67419 33.445 3.9881C33.7402 4.30221 33.9737 4.67505 34.1457 5.10603C34.3176 5.53721 34.4034 5.99664 34.4034 6.48414V9.99949H33.7424V8.59331C33.4427 9.01527 33.0592 9.35483 32.5923 9.61282C32.1251 9.87059 31.6272 9.99949 31.0981 9.99949C30.6311 9.99949 30.197 9.90787 29.796 9.72527C29.3949 9.54245 29.0468 9.29409 28.7517 8.97999C28.4561 8.66608 28.2226 8.29564 28.0509 7.86907C27.879 7.4425 27.7931 6.98107 27.7931 6.48414C27.7931 5.99664 27.879 5.53721 28.0509 5.10603C28.2226 4.67505 28.4561 4.30221 28.7517 3.9881C29.0468 3.67419 29.3949 3.42584 29.796 3.24282C30.1971 3.06021 30.6311 2.9688 31.0981 2.9688ZM31.0981 9.2963C31.4596 9.2963 31.8011 9.22133 32.1229 9.07139C32.4446 8.92144 32.7243 8.71979 32.9623 8.46683C33.2004 8.21366 33.3898 7.91598 33.5308 7.57381C33.6717 7.23184 33.7424 6.86842 33.7424 6.48416C33.7424 6.09968 33.6717 5.73647 33.5308 5.39429C33.3898 5.05232 33.2004 4.75464 32.9623 4.50147C32.7243 4.2485 32.4446 4.04684 32.1229 3.89691C31.8011 3.74697 31.4596 3.672 31.0981 3.672C30.7368 3.672 30.3953 3.74697 30.0736 3.89691C29.7519 4.04685 29.472 4.24851 29.2341 4.50147C28.9961 4.75464 28.8067 5.05232 28.6655 5.39429C28.5245 5.73647 28.454 6.09968 28.454 6.48416C28.454 6.86842 28.5245 7.23184 28.6655 7.57381C28.8067 7.91599 28.9961 8.21366 29.2341 8.46683C29.472 8.7198 29.7519 8.92146 30.0736 9.07139C30.3953 9.22133 30.7368 9.2963 31.0981 9.2963Z" fill="white"/>
<path d="M35.9164 0.052897V0.450802H35.0993V2.68425H34.664V0.450802H33.8354V0.052897H35.9164ZM36.9624 2.73696C36.7741 2.73696 36.6022 2.7099 36.4469 2.65578C36.2916 2.60166 36.1542 2.52589 36.0345 2.42847L36.237 2.10354C36.3489 2.18754 36.4661 2.24906 36.5883 2.28836C36.7104 2.32765 36.8274 2.34729 36.9396 2.34729C37.1075 2.34729 37.2361 2.31683 37.3252 2.25589C37.4142 2.19496 37.4588 2.10354 37.4588 1.98167C37.4588 1.90871 37.4436 1.84777 37.413 1.79906C37.3825 1.75035 37.3303 1.70565 37.2564 1.66496C37.1825 1.62447 37.0757 1.57697 36.9356 1.52285L36.8631 1.49438C36.7002 1.42943 36.5698 1.36729 36.4718 1.30776C36.3738 1.24802 36.2943 1.17025 36.2332 1.07423C36.1721 0.97801 36.1416 0.856929 36.1416 0.710801C36.1416 0.553649 36.1829 0.421742 36.2656 0.314712C36.3484 0.207865 36.456 0.128697 36.5883 0.0771684C36.7206 0.02585 36.862 0 37.012 0C37.3226 0 37.6064 0.0922047 37.8635 0.27622L37.6637 0.601153C37.5486 0.525182 37.4404 0.469851 37.3392 0.434582C37.2379 0.3993 37.126 0.381869 37.0031 0.381869C36.8727 0.381869 36.769 0.408127 36.6919 0.46105C36.615 0.513763 36.5768 0.59155 36.5768 0.694581C36.5768 0.751306 36.5907 0.800822 36.6188 0.842722C36.6475 0.884621 36.6957 0.925915 36.7651 0.966604C36.8339 1.0071 36.9324 1.0518 37.0604 1.10051L37.1375 1.12898C37.3041 1.19132 37.4385 1.25145 37.5408 1.30978C37.6433 1.36792 37.7299 1.4491 37.8019 1.55334C37.8737 1.65758 37.9093 1.79228 37.9093 1.95745C37.9093 2.12523 37.8691 2.26815 37.789 2.38583C37.7089 2.5037 37.5981 2.59149 37.4569 2.64982C37.3156 2.70796 37.1508 2.73702 36.9624 2.73702L36.9624 2.73696ZM38.7912 2.28214H39.9672V2.68425H38.356V0.0529102H38.7912V2.28215V2.28214Z" fill="white"/>
</g>
<defs>
<clipPath id="clip0">
<rect width="39" height="10" fill="white" transform="translate(0.967163)"/>
</clipPath>
</defs>
</svg>
