<svg width="83" height="47" viewBox="0 0 83 47" fill="none" xmlns="http://www.w3.org/2000/svg">
<path d="M10.6085 26.7325C10.8141 25.3128 11.4104 24.2656 12.4016 23.5879C13.3928 22.9101 14.5289 22.5691 15.8146 22.5691C16.6245 22.5691 17.3698 22.6933 18.055 22.9464C18.7401 23.199 19.2154 23.52 19.4855 23.9131C19.1709 24.2262 18.9172 24.8519 18.728 25.7943H18.3495C18.285 25.5096 18.128 25.2086 17.87 24.884C17.6163 24.5551 17.2737 24.2826 16.8466 24.0579C16.4158 23.8374 15.9119 23.7247 15.3272 23.7247C14.88 23.7247 14.4449 23.861 14.0177 24.1299C13.5949 24.3988 13.2523 24.7556 12.9864 25.2007C12.7241 25.6417 12.5915 26.1074 12.5915 26.5926C12.5915 27.7434 13.3168 28.6664 14.7631 29.3641L17.4064 30.4913C18.3373 30.8844 19.0261 31.4216 19.4776 32.1036C19.9328 32.7856 20.1585 33.5433 20.1585 34.3815C20.1585 35.2839 19.9084 36.1585 19.4052 37.0083C18.9014 37.8587 18.1883 38.5528 17.2737 39.09C16.3549 39.6272 15.3315 39.8961 14.1991 39.8961C13.4738 39.8961 12.7326 39.7435 11.9708 39.4431C11.2133 39.1384 10.6334 38.7853 10.23 38.3844C10.4034 37.9628 10.5117 37.5982 10.5482 37.2936C10.5884 36.9889 10.6085 36.6001 10.6085 36.1307H10.9869C11.523 36.889 12.0104 37.4462 12.4497 37.7993C12.889 38.1524 13.276 38.3692 13.6101 38.4492C13.9447 38.5334 14.3275 38.5733 14.7625 38.5733C15.4233 38.5733 15.9996 38.425 16.4912 38.1282C16.9829 37.8314 17.3534 37.4341 17.6035 36.9447C17.8572 36.4553 17.9826 35.9338 17.9826 35.3766C17.9826 34.7025 17.8055 34.0932 17.4508 33.5439C17.096 32.9982 16.5807 32.6051 15.8955 32.3725L13.4415 31.2411C12.5513 30.8359 11.9021 30.395 11.495 29.9213C11.0843 29.4483 10.8342 28.9826 10.7454 28.5216C10.6529 28.0644 10.6085 27.4666 10.6085 26.7331V26.7325ZM23.0591 39.5109V21.2699C23.4382 21.3663 23.8088 21.4141 24.1714 21.4141C24.5341 21.4141 24.8566 21.3663 25.1383 21.2699V29.9371C25.3117 29.7166 25.5052 29.4641 25.7224 29.1752C25.9402 28.8863 26.2019 28.6337 26.5122 28.409C26.8225 28.1843 27.2174 28.0038 27.6927 27.8718C28.1679 27.7391 28.7642 27.6713 29.4816 27.6713C30.1588 27.6713 30.7709 27.8639 31.3234 28.2449C31.8717 28.6301 32.3025 29.1473 32.6085 29.8051C32.9146 30.4586 33.0679 31.189 33.0679 31.9952V39.5115C32.6895 39.4195 32.3426 39.371 32.0287 39.371C31.7147 39.371 31.3679 39.4189 30.9894 39.5115V32.1878C30.9894 31.1854 30.7192 30.4107 30.1795 29.8656C29.6434 29.3163 28.9948 29.0431 28.2415 29.0431C27.7219 29.0431 27.2223 29.1915 26.7428 29.4841C26.2633 29.7766 25.8764 30.2218 25.5825 30.8153C25.2886 31.4089 25.1395 32.1187 25.1395 32.937V39.5109C24.8578 39.4189 24.5353 39.3704 24.1726 39.3704C23.81 39.3704 23.4394 39.4183 23.0603 39.5109H23.0591ZM35.5262 34.2446C35.5262 32.9212 35.7678 31.7862 36.2478 30.8438C36.7273 29.905 37.3802 29.1994 38.2059 28.7342C39.0322 28.2648 39.9626 28.0323 41.0025 28.0323C42.1994 28.0323 43.1705 28.3054 43.9238 28.8505C44.6734 29.3962 45.2089 30.0576 45.5235 30.828C45.8374 31.5978 45.995 32.3483 45.995 33.0781C45.995 33.4149 45.9671 33.6838 45.9147 33.88H37.7995C37.7995 34.8745 37.9285 35.7128 38.1822 36.4026C38.4402 37.0889 38.8753 37.6261 39.4995 38.0028C40.1202 38.3838 40.938 38.5721 41.9535 38.5721C42.6222 38.5721 43.2587 38.4395 43.8715 38.1712C44.4799 37.9065 44.9716 37.5377 45.3501 37.0683L45.535 38.3838C44.9229 38.7847 44.4714 39.0694 44.1854 39.2341C43.8994 39.3989 43.5045 39.5509 43.0007 39.6872C42.4969 39.8277 41.8927 39.8955 41.1917 39.8955C39.9504 39.8392 38.9112 39.5467 38.0769 39.0173C37.2427 38.4879 36.6263 37.8102 36.2235 36.9756C35.8207 36.1452 35.5907 35.2349 35.5262 34.244V34.2446ZM44.0364 32.9412C44.0364 31.8062 43.8106 30.8595 43.3634 30.1055C42.9119 29.3472 42.1306 28.9704 41.0104 28.9704C40.3575 28.9704 39.7892 29.1752 39.3061 29.5804C38.8223 29.9855 38.4481 30.5028 38.1901 31.1284C37.9279 31.7541 37.7995 32.3598 37.7995 32.9412H44.037H44.0364ZM49.1378 39.5109V21.0773C49.5163 21.1736 49.8631 21.2215 50.1771 21.2215C50.4911 21.2215 50.8379 21.1736 51.2164 21.0773V39.5109C50.9347 39.4189 50.6122 39.3704 50.2495 39.3704C49.8869 39.3704 49.5163 39.4183 49.1378 39.5109ZM55.0005 36.6915V28.9704H53.4897C53.5821 28.8784 53.6308 28.7421 53.6308 28.5731C53.6308 28.4005 53.5821 28.22 53.4897 28.0317H55.0005V25.7816L56.8862 25.0354V28.0317H59.5136C59.4168 28.22 59.3724 28.3769 59.3724 28.501C59.3724 28.6252 59.4168 28.7815 59.5136 28.9704H56.8862V35.187C56.8862 35.8769 56.9142 36.4747 56.975 36.9756C57.0316 37.4807 57.1886 37.9265 57.4381 38.319C57.6881 38.712 58.0745 38.9083 58.5984 38.9083C58.9489 38.9083 59.3803 38.7999 59.8878 38.5794V39.3292C59.0493 39.6738 58.3003 39.8465 57.6431 39.8465C56.7888 39.8465 56.1359 39.5697 55.6808 39.0125C55.2256 38.4546 54.9999 37.6806 54.9999 36.6903L55.0005 36.6915ZM61.2258 36.872C61.2258 36.3463 61.3226 35.8811 61.5197 35.4723C61.7169 35.0635 62.0394 34.7061 62.4866 34.4015C62.9338 34.0968 63.5222 33.8521 64.2554 33.6717L67.2692 33.1102C67.6161 33.0381 67.8734 32.8813 68.0432 32.645C68.2124 32.4046 68.2969 32.1157 68.2969 31.7789C68.2969 31.358 68.1758 30.9286 67.9343 30.4955C67.6964 30.0582 67.3581 29.6972 66.9151 29.4047C66.4758 29.1158 65.964 28.9717 65.3836 28.9717C64.8438 28.9717 64.3601 29.1043 63.9329 29.3726C63.51 29.6373 63.0507 30.0661 62.5547 30.6639H62.1763V29.3484C62.6393 29.0716 63.0506 28.8511 63.409 28.6785C63.7674 28.5059 64.1788 28.3539 64.654 28.2255C65.1256 28.0971 65.6209 28.0329 66.1411 28.0329C67.5716 28.0329 68.6188 28.3418 69.2881 28.9632C69.9569 29.581 70.2915 30.5876 70.2915 31.9837V37.9998C70.2915 38.4449 70.5094 38.6697 70.9402 38.6697C71.0892 38.6697 71.315 38.6339 71.6131 38.5655V39.1312C71.2261 39.4479 70.7667 39.6084 70.2307 39.6084C69.7512 39.6084 69.3119 39.48 68.9133 39.2196C68.5184 38.9592 68.2848 38.6139 68.2124 38.1887C67.024 39.3117 65.7906 39.8737 64.5055 39.8737C63.5867 39.8737 62.8091 39.5812 62.1763 38.9991C61.5435 38.4135 61.2252 37.7036 61.2252 36.8732L61.2258 36.872ZM68.213 37.0568V33.86C67.0039 33.9805 66.0413 34.1489 65.3282 34.3652C64.615 34.5856 64.0911 34.8788 63.7565 35.2434C63.4224 35.6044 63.2569 36.0616 63.2569 36.611C63.2569 36.7836 63.277 36.9962 63.3172 37.2445C63.3774 37.5976 63.6232 37.9223 64.0504 38.2233C64.4775 38.5201 64.9649 38.6684 65.5052 38.6684C66.5165 38.6684 67.4189 38.1312 68.213 37.0561V37.0568Z" fill="#0033EA"/>
<path fill-rule="evenodd" clip-rule="evenodd" d="M39.9435 0C59.5443 0 75.846 13.2757 79.2377 30.7856C79.0923 30.7747 78.945 30.7693 78.7971 30.7693C78.2374 30.7693 77.697 30.8498 77.1853 30.9988C70.7251 14.6106 56.4807 3.22338 39.9435 3.22338C20.5525 3.22338 4.31106 18.8781 0.079102 39.8961C0.0285984 39.1227 0 38.3444 0 37.5588C0 16.8158 17.8837 0.00060567 39.9435 0.00060567V0Z" fill="#0033EA"/>
<path d="M78.7965 39.8955C80.7026 39.8955 82.2478 38.3575 82.2478 36.4602C82.2478 34.5629 80.7026 33.0248 78.7965 33.0248C76.8904 33.0248 75.3452 34.5629 75.3452 36.4602C75.3452 38.3575 76.8904 39.8955 78.7965 39.8955Z" fill="#FFB100"/>
<path d="M34.2778 45.5585C34.2821 45.4834 34.2979 45.4211 34.3241 45.3714C34.3502 45.3223 34.3843 45.2854 34.4257 45.2624C34.4671 45.2387 34.5097 45.2272 34.5529 45.2272C34.6028 45.2272 34.6508 45.2394 34.6977 45.2648C34.7439 45.2896 34.7823 45.3241 34.8115 45.3684C34.8407 45.4126 34.8553 45.4641 34.8553 45.5228C34.8461 45.6161 34.8145 45.6875 34.7597 45.7378C34.7044 45.7875 34.6405 45.8123 34.5662 45.8123C34.4938 45.8123 34.4299 45.7899 34.3746 45.7445C34.3192 45.6997 34.287 45.6373 34.2778 45.5585ZM35.5429 45.5585C35.5471 45.4834 35.5629 45.4211 35.5891 45.3714C35.6153 45.3223 35.6493 45.2854 35.6907 45.2624C35.7321 45.2387 35.7747 45.2272 35.8179 45.2272C35.8678 45.2272 35.9159 45.2394 35.9627 45.2648C36.0089 45.2896 36.0473 45.3241 36.0765 45.3684C36.1057 45.4126 36.1203 45.4641 36.1203 45.5228C36.1112 45.6161 36.0795 45.6875 36.0248 45.7378C35.9694 45.7875 35.9055 45.8123 35.8313 45.8123C35.7589 45.8123 35.695 45.7899 35.6396 45.7445C35.5842 45.6997 35.552 45.6373 35.5429 45.5585ZM36.8079 45.5585C36.8121 45.4834 36.828 45.4211 36.8541 45.3714C36.8803 45.3223 36.9144 45.2854 36.9557 45.2624C36.9971 45.2387 37.0397 45.2272 37.0829 45.2272C37.1328 45.2272 37.1809 45.2394 37.2277 45.2648C37.274 45.2896 37.3123 45.3241 37.3415 45.3684C37.3707 45.4126 37.3853 45.4641 37.3853 45.5228C37.3762 45.6161 37.3446 45.6875 37.2898 45.7378C37.2344 45.7875 37.1705 45.8123 37.0963 45.8123C37.0239 45.8123 36.96 45.7899 36.9046 45.7445C36.8493 45.6997 36.817 45.6373 36.8079 45.5585ZM37.9664 44.1897C37.9901 44.0419 38.0443 43.922 38.1277 43.8306C38.2116 43.7397 38.3108 43.6749 38.4276 43.6374C38.5433 43.5992 38.6668 43.5798 38.7976 43.5798C38.9272 43.5798 39.0209 43.5822 39.0799 43.5865C39.1383 43.5913 39.1803 43.5956 39.2041 43.601C39.2278 43.6065 39.2606 43.6119 39.3002 43.6174C39.3398 43.6228 39.4042 43.6252 39.4931 43.6252C39.6032 43.6252 39.7444 43.6222 39.9178 43.6162V43.7942L39.3769 43.7585C39.4341 43.793 39.4882 43.8427 39.5387 43.9087C39.5904 43.9747 39.63 44.0474 39.658 44.128C39.6866 44.2085 39.7012 44.2891 39.7012 44.3696C39.6775 44.5913 39.6063 44.7512 39.4894 44.8481C39.3714 44.9456 39.2205 45.0031 39.0349 45.0207C38.8499 45.0377 38.7033 45.0486 38.595 45.0528C38.4861 45.0577 38.4216 45.0813 38.4009 45.1249C38.379 45.1739 38.3692 45.2145 38.3692 45.246C38.3692 45.3102 38.4003 45.3605 38.4623 45.395C38.5256 45.4295 38.6035 45.4519 38.6972 45.4635C38.7921 45.475 38.8998 45.4804 39.0215 45.4804C39.0623 45.4804 39.0994 45.4804 39.1316 45.4792C39.1639 45.4786 39.2028 45.478 39.2479 45.478C39.3032 45.478 39.3464 45.4804 39.3763 45.4846C39.5637 45.5222 39.7024 45.5858 39.7919 45.6748C39.8813 45.7645 39.9348 45.905 39.9531 46.0976C39.9543 46.1085 39.9555 46.1236 39.9555 46.1448C39.9555 46.2423 39.9294 46.3411 39.8776 46.4416C39.8259 46.5428 39.748 46.6354 39.644 46.7214C39.5399 46.8068 39.4176 46.8741 39.2746 46.9237C39.1329 46.9734 38.9734 46.9982 38.7976 46.9982C38.6199 46.9982 38.4623 46.9691 38.326 46.9116C38.1885 46.8541 38.0826 46.7747 38.0078 46.676C37.9323 46.5773 37.8946 46.4683 37.8946 46.3502C37.8946 46.1715 37.9323 46.034 38.0066 45.9365C38.0814 45.8396 38.2001 45.7736 38.3644 45.7378C38.1715 45.6609 38.0753 45.5404 38.0753 45.3768C38.0753 45.3066 38.0875 45.2478 38.1106 45.2018C38.1337 45.1558 38.1684 45.1146 38.2141 45.0764C38.2603 45.0389 38.3218 44.9947 38.4009 44.9432C38.2171 44.8862 38.0997 44.8063 38.0461 44.7033C37.9938 44.5998 37.9676 44.4671 37.9676 44.3054V44.1885L37.9664 44.1897ZM38.3272 44.369C38.3272 44.5265 38.3735 44.6561 38.4654 44.7572C38.5572 44.8584 38.668 44.9093 38.7976 44.9093C38.8213 44.9117 38.8402 44.9129 38.8518 44.9129C38.9351 44.9129 39.0136 44.8899 39.0885 44.842C39.1633 44.7954 39.2235 44.7276 39.2704 44.6397C39.3172 44.5525 39.3404 44.4502 39.3404 44.3327C39.3404 44.1407 39.2935 43.9911 39.1992 43.8833C39.1043 43.7748 38.9832 43.7215 38.8341 43.7215C38.643 43.7379 38.5104 43.8124 38.4374 43.9432C38.3644 44.0747 38.3279 44.2164 38.3279 44.369H38.3272ZM38.183 46.2793C38.183 46.4113 38.2402 46.5343 38.3552 46.6481C38.4702 46.7626 38.6418 46.8195 38.8706 46.8195C38.9765 46.8195 39.0848 46.802 39.1974 46.7656C39.3099 46.7299 39.4036 46.6736 39.4803 46.5979C39.5564 46.5222 39.5941 46.4277 39.5941 46.315C39.5941 46.2102 39.5807 46.1194 39.5545 46.0425C39.5278 45.9662 39.4669 45.902 39.3708 45.8517C39.2753 45.8002 39.1323 45.7748 38.9424 45.7748C38.7976 45.7748 38.671 45.7881 38.5633 45.8129C38.4556 45.8384 38.3674 45.8886 38.2999 45.9643C38.2323 46.0388 38.1928 46.1436 38.1824 46.2793H38.183ZM40.1679 44.7681C40.1679 44.5313 40.2172 44.3199 40.3151 44.1352C40.4131 43.9493 40.5531 43.8045 40.7362 43.7016C40.9181 43.598 41.1268 43.5465 41.3623 43.5465C41.6368 43.5465 41.8558 43.6162 42.0183 43.7567C42.1813 43.8966 42.2933 44.0553 42.356 44.2333C42.4174 44.4114 42.4485 44.5652 42.4485 44.6961C42.4485 44.8202 42.4278 44.9456 42.3852 45.0722C42.3426 45.1988 42.2757 45.3187 42.185 45.4326C42.0937 45.5464 41.9745 45.6373 41.8266 45.7075C41.6787 45.7772 41.5096 45.8117 41.3203 45.8117C41.3094 45.8117 41.2997 45.8117 41.2911 45.8105C41.282 45.8099 41.2698 45.8093 41.2552 45.8093C41.0331 45.8093 40.8409 45.7633 40.6754 45.6712C40.5111 45.5791 40.3857 45.4544 40.2993 45.2969C40.2123 45.1388 40.1691 44.9626 40.1691 44.7681H40.1679ZM40.6023 44.8057C40.6023 44.9789 40.651 45.163 40.7478 45.3562C40.8451 45.5495 41.0252 45.653 41.2887 45.6688C41.4938 45.6688 41.6611 45.5858 41.7913 45.4192C41.9209 45.2527 41.9945 45.0122 42.0122 44.6973C42.0122 44.5071 41.9872 44.3381 41.9373 44.1903C41.8881 44.0432 41.8114 43.9287 41.7092 43.8475C41.6069 43.767 41.4785 43.7264 41.3246 43.7264C41.1019 43.7264 40.9248 43.8251 40.7934 44.0238C40.6626 44.2224 40.5969 44.452 40.5969 44.7112C40.5969 44.7318 40.5981 44.7633 40.6011 44.8057H40.6023ZM42.9176 45.2351V43.7585H42.6286C42.6462 43.7409 42.6553 43.7149 42.6553 43.6828C42.6553 43.6501 42.6462 43.615 42.6286 43.5792H42.9176V43.1486L43.2784 43.0063V43.5792H43.781C43.7628 43.615 43.7543 43.6452 43.7543 43.6689C43.7543 43.6925 43.7628 43.7228 43.781 43.7585H43.2784V44.9474C43.2784 45.0795 43.2839 45.1939 43.2955 45.2896C43.3064 45.3859 43.3362 45.4713 43.3843 45.5464C43.4318 45.6215 43.506 45.6591 43.6064 45.6591C43.6733 45.6591 43.7561 45.6385 43.8528 45.5961V45.7396C43.6928 45.8057 43.5492 45.8384 43.4238 45.8384C43.2602 45.8384 43.1354 45.7857 43.0484 45.6791C42.9614 45.5725 42.9182 45.4241 42.9182 45.2351H42.9176ZM45.2225 43.5786C45.3126 43.5968 45.4008 43.6065 45.4848 43.6065C45.5687 43.6065 45.6381 43.5974 45.6929 43.5786C45.7087 43.6368 45.7507 43.7536 45.817 43.9275C45.8833 44.1007 45.9381 44.2412 45.9801 44.3478C46.0233 44.4544 46.0847 44.601 46.1644 44.7881C46.2447 44.9747 46.3165 45.1358 46.3792 45.2709C46.4455 45.1376 46.5344 44.9426 46.6457 44.687C46.7571 44.4308 46.852 44.2 46.9317 43.9935C47.0102 43.787 47.0552 43.6489 47.0656 43.5786C47.1197 43.5968 47.1745 43.6065 47.228 43.6065C47.2822 43.6065 47.337 43.5974 47.3905 43.5786L45.8724 46.9619C45.8365 46.9437 45.7914 46.934 45.7367 46.934C45.6825 46.934 45.6192 46.9431 45.5468 46.9619L46.1608 45.7384L45.2213 43.5786H45.2225ZM47.5718 44.7675C47.5718 44.5307 47.6211 44.3193 47.7191 44.1346C47.8171 43.9487 47.957 43.8039 48.1402 43.701C48.3221 43.5974 48.5308 43.5459 48.7663 43.5459C49.0407 43.5459 49.2597 43.6156 49.4222 43.7561C49.5853 43.896 49.6972 44.0547 49.7599 44.2327C49.8214 44.4108 49.8524 44.5646 49.8524 44.6955C49.8524 44.8196 49.8317 44.945 49.7891 45.0716C49.7465 45.1982 49.6796 45.3181 49.5889 45.432C49.4977 45.5458 49.3784 45.6367 49.2305 45.7069C49.0827 45.7766 48.9135 45.8111 48.7243 45.8111C48.7133 45.8111 48.7036 45.8111 48.6951 45.8099C48.686 45.8093 48.6738 45.8087 48.6592 45.8087C48.4371 45.8087 48.2448 45.7627 48.0793 45.6706C47.915 45.5785 47.7897 45.4538 47.7033 45.2963C47.6163 45.1382 47.5731 44.962 47.5731 44.7675H47.5718ZM48.0063 44.8051C48.0063 44.9783 48.055 45.1624 48.1517 45.3556C48.2491 45.5489 48.4292 45.6524 48.6926 45.6682C48.8977 45.6682 49.065 45.5852 49.1953 45.4186C49.3249 45.2521 49.3985 45.0116 49.4161 44.6967C49.4161 44.5065 49.3912 44.3375 49.3413 44.1897C49.292 44.0426 49.2153 43.9281 49.1131 43.8469C49.0109 43.7664 48.8825 43.7258 48.7286 43.7258C48.5058 43.7258 48.3288 43.8245 48.1973 44.0232C48.0665 44.2218 48.0008 44.4514 48.0008 44.7106C48.0008 44.7312 48.002 44.7627 48.0051 44.8051H48.0063ZM50.3167 44.9826V43.5786C50.3708 43.5968 50.4372 43.6065 50.5156 43.6065C50.5941 43.6065 50.6605 43.5974 50.7146 43.5786V44.8729C50.7146 45.005 50.7341 45.1255 50.7724 45.2345C50.8108 45.3429 50.8698 45.4301 50.9489 45.4962C51.028 45.5622 51.1253 45.5949 51.2391 45.5949C51.2641 45.5949 51.2817 45.5943 51.2939 45.5925C51.4764 45.5761 51.6066 45.5065 51.6845 45.3835C51.7624 45.2599 51.8008 45.1146 51.8008 44.945V43.5786C51.8732 43.5968 51.9437 43.6065 52.0137 43.6065C52.0831 43.6065 52.1445 43.5974 52.1987 43.5786V45.7742C52.1445 45.7566 52.0831 45.7475 52.0137 45.7475C51.9444 45.7475 51.8732 45.7566 51.8008 45.7742V45.4489C51.7332 45.5834 51.6352 45.6766 51.5062 45.7306C51.3779 45.7845 51.2227 45.8111 51.0402 45.8111C50.7402 45.8111 50.5442 45.7287 50.4536 45.5646C50.3617 45.4005 50.3161 45.206 50.3161 44.9826H50.3167ZM54.0375 44.7312C54.0375 44.4986 54.0831 44.2963 54.1732 44.1249C54.2633 43.9529 54.4008 43.8191 54.5858 43.7228C54.7701 43.6271 54.9965 43.5786 55.266 43.5786C55.4133 43.5786 55.5319 43.5925 55.6208 43.6192C55.7096 43.6458 55.8203 43.6919 55.953 43.7579L55.8806 44.0819H55.8082C55.7352 43.9705 55.6494 43.8893 55.552 43.8372C55.4553 43.7845 55.3354 43.7585 55.1942 43.7585C55.0439 43.7585 54.9137 43.8033 54.8048 43.8911C54.6953 43.9802 54.6131 44.0959 54.5565 44.2394C54.5006 44.3817 54.472 44.5344 54.472 44.6949C54.472 44.8584 54.5012 45.0116 54.5596 45.1546C54.618 45.2969 54.7074 45.412 54.8285 45.4998C54.949 45.5882 55.0944 45.6318 55.2666 45.6318C55.4029 45.6318 55.5216 45.6082 55.6202 45.5616C55.7193 45.5143 55.8179 45.4416 55.9159 45.3441L55.9518 45.3793L55.9159 45.5955C55.8197 45.6724 55.7072 45.7299 55.5794 45.7693C55.451 45.8093 55.3214 45.8293 55.1887 45.8293C54.9946 45.8293 54.8091 45.7881 54.6302 45.7039C54.4519 45.6209 54.3089 45.4962 54.2 45.3302C54.0911 45.1643 54.0375 44.9644 54.0375 44.7306V44.7312ZM56.2755 44.7681C56.2755 44.5313 56.3248 44.3199 56.4227 44.1352C56.5207 43.9493 56.6607 43.8045 56.8438 43.7016C57.0257 43.598 57.2344 43.5465 57.4699 43.5465C57.7444 43.5465 57.9634 43.6162 58.1259 43.7567C58.2889 43.8966 58.4009 44.0553 58.4636 44.2333C58.525 44.4114 58.5561 44.5652 58.5561 44.6961C58.5561 44.8202 58.5354 44.9456 58.4928 45.0722C58.4502 45.1988 58.3833 45.3187 58.2926 45.4326C58.2013 45.5464 58.0821 45.6373 57.9342 45.7075C57.7863 45.7772 57.6172 45.8117 57.4279 45.8117C57.417 45.8117 57.4073 45.8117 57.3987 45.8105C57.3896 45.8099 57.3774 45.8093 57.3628 45.8093C57.1407 45.8093 56.9485 45.7633 56.783 45.6712C56.6187 45.5791 56.4933 45.4544 56.4069 45.2969C56.3199 45.1388 56.2767 44.9626 56.2767 44.7681H56.2755ZM56.7099 44.8057C56.7099 44.9789 56.7586 45.163 56.8554 45.3562C56.9527 45.5495 57.1328 45.653 57.3963 45.6688C57.6014 45.6688 57.7687 45.5858 57.8989 45.4192C58.0285 45.2527 58.1021 45.0122 58.1198 44.6973C58.1198 44.5071 58.0948 44.3381 58.0449 44.1903C57.9957 44.0432 57.919 43.9287 57.8168 43.8475C57.7145 43.767 57.5861 43.7264 57.4322 43.7264C57.2095 43.7264 57.0324 43.8251 56.901 44.0238C56.7702 44.2224 56.7045 44.452 56.7045 44.7112C56.7045 44.7318 56.7057 44.7633 56.7087 44.8057H56.7099ZM58.7709 43.5792H59.2406C59.3136 43.8354 59.4201 44.1395 59.5588 44.4889C59.6976 44.8396 59.8199 45.1122 59.927 45.3078C60.0298 45.1212 60.16 44.8257 60.3176 44.4217C60.4758 44.0171 60.5744 43.7367 60.6133 43.5792H60.9389C60.85 43.7652 60.766 43.9475 60.6869 44.1273C60.6085 44.3066 60.5294 44.4907 60.4496 44.6803C60.3711 44.8705 60.2939 45.0564 60.219 45.2387C60.1448 45.4204 60.0712 45.5997 59.9994 45.7748C59.9635 45.7572 59.9148 45.7481 59.8546 45.7481C59.7943 45.7481 59.7456 45.7572 59.7097 45.7748L58.7702 43.5792H58.7709ZM61.1895 44.7675C61.1895 44.5144 61.2358 44.2975 61.3277 44.1171C61.4196 43.9378 61.5443 43.8027 61.7025 43.7137C61.8607 43.624 62.0384 43.5792 62.2373 43.5792C62.4661 43.5792 62.6517 43.6313 62.7959 43.7361C62.9389 43.8403 63.0418 43.9668 63.102 44.114C63.1622 44.2612 63.192 44.4047 63.192 44.544C63.192 44.6082 63.1866 44.6597 63.1768 44.6979H61.6246C61.6246 44.8881 61.6489 45.0486 61.6976 45.18C61.7469 45.3114 61.8303 45.4144 61.9495 45.4865C62.0682 45.5591 62.2246 45.5955 62.4187 45.5955C62.5464 45.5955 62.6681 45.57 62.7856 45.5186C62.9018 45.4683 62.9961 45.3974 63.0685 45.3078L63.1038 45.5591C62.9864 45.6361 62.9 45.6906 62.8458 45.7221C62.7911 45.7536 62.7156 45.7826 62.6195 45.8087C62.5233 45.8353 62.4077 45.8487 62.2732 45.8487C62.0359 45.8378 61.837 45.782 61.6775 45.6809C61.5181 45.5797 61.4001 45.4501 61.3228 45.2902C61.2455 45.1315 61.2017 44.9571 61.1895 44.7675ZM62.8172 44.5186C62.8172 44.3012 62.774 44.1207 62.6882 43.9759C62.6018 43.8312 62.4527 43.7585 62.238 43.7585C62.1132 43.7585 62.0043 43.7979 61.9118 43.8754C61.8193 43.9529 61.7475 44.0516 61.6982 44.1716C61.6483 44.2915 61.6234 44.4072 61.6234 44.5186H62.8166H62.8172ZM63.719 45.7754V43.5798C63.7731 43.598 63.8328 43.6077 63.8991 43.6077C63.9654 43.6077 64.0257 43.5986 64.0792 43.5798V44.0147C64.1261 43.9232 64.1808 43.8421 64.2459 43.7724C64.3098 43.7016 64.3834 43.6458 64.4656 43.6047C64.5489 43.5641 64.6378 43.5429 64.7321 43.5429C64.7461 43.5429 64.7692 43.5447 64.8021 43.5477L64.7656 43.979C64.6743 43.9305 64.5909 43.9069 64.5155 43.9069C64.4224 43.9069 64.3427 43.9378 64.2776 43.9989C64.2119 44.0601 64.1626 44.1364 64.1297 44.2261C64.0968 44.3157 64.0798 44.4011 64.0798 44.4823V45.776C64.0257 45.7584 63.966 45.7493 63.8997 45.7493C63.8334 45.7493 63.7731 45.7584 63.7196 45.776L63.719 45.7754ZM65.0193 44.7681C65.0193 44.515 65.0655 44.2981 65.1574 44.1177C65.2493 43.9384 65.374 43.8033 65.5322 43.7143C65.6905 43.6246 65.8681 43.5798 66.0671 43.5798C66.2959 43.5798 66.4815 43.6319 66.6257 43.7367C66.7687 43.8409 66.8715 43.9674 66.9317 44.1146C66.992 44.2618 67.0218 44.4053 67.0218 44.5447C67.0218 44.6089 67.0163 44.6603 67.0066 44.6985H65.4544C65.4544 44.8887 65.4787 45.0492 65.5274 45.1806C65.5767 45.312 65.66 45.415 65.7793 45.4871C65.8979 45.5598 66.0543 45.5961 66.2484 45.5961C66.3762 45.5961 66.4979 45.5707 66.6153 45.5192C66.7316 45.4689 66.8259 45.398 66.8983 45.3084L66.9336 45.5598C66.8161 45.6367 66.7297 45.6912 66.6756 45.7227C66.6208 45.7542 66.5454 45.7832 66.4492 45.8093C66.3531 45.8359 66.2375 45.8493 66.103 45.8493C65.8657 45.8384 65.6667 45.7826 65.5073 45.6815C65.3479 45.5803 65.2298 45.4507 65.1526 45.2908C65.0753 45.1322 65.0315 44.9577 65.0193 44.7681ZM66.647 44.5192C66.647 44.3018 66.6038 44.1213 66.518 43.9765C66.4316 43.8318 66.2825 43.7591 66.0677 43.7591C65.943 43.7591 65.8341 43.7985 65.7416 43.876C65.6491 43.9535 65.5773 44.0522 65.528 44.1722C65.4781 44.2921 65.4531 44.4078 65.4531 44.5192H66.6464H66.647ZM67.3315 44.8045C67.3315 44.607 67.3528 44.4308 67.3966 44.2757C67.4404 44.1213 67.5055 43.9886 67.5932 43.8796C67.6802 43.7706 67.7867 43.6876 67.912 43.6319C68.038 43.5756 68.181 43.5477 68.3422 43.5477C68.445 43.5477 68.5503 43.5683 68.6592 43.6089C68.7687 43.6495 68.8576 43.7016 68.9257 43.7646C68.9945 43.8281 69.0279 43.8887 69.0279 43.9456V42.3231C69.1004 42.3412 69.1667 42.3509 69.2269 42.3509C69.2872 42.3509 69.3535 42.3418 69.4259 42.3231V45.7754C69.3717 45.756 69.3103 45.7469 69.2409 45.7469C69.1715 45.7469 69.1004 45.756 69.0279 45.7754V45.3781C68.919 45.5277 68.8004 45.6379 68.6702 45.7081C68.54 45.7778 68.4067 45.8123 68.2692 45.8123C68.1098 45.8123 67.957 45.7675 67.8116 45.6785C67.665 45.5894 67.5487 45.4677 67.4617 45.3126C67.3747 45.1576 67.3309 44.988 67.3309 44.8039L67.3315 44.8045ZM67.766 44.7336C67.766 45.0474 67.828 45.269 67.954 45.3986C68.0799 45.5283 68.2089 45.5937 68.3434 45.5937C68.355 45.5949 68.3738 45.5961 68.3976 45.5961C68.5101 45.5961 68.6148 45.561 68.7122 45.4907C68.8089 45.4198 68.8862 45.3181 68.9434 45.1824C69.0006 45.0474 69.0292 44.8862 69.0292 44.6973C69.0292 44.4617 68.9878 44.2473 68.9044 44.0535C68.8205 43.8602 68.661 43.7633 68.4249 43.7633C68.4158 43.7633 68.4079 43.7633 68.4012 43.7639C68.3951 43.7646 68.3872 43.7652 68.3805 43.7652C68.128 43.7797 67.9625 43.8833 67.884 44.0747C67.8061 44.2654 67.7672 44.4853 67.7672 44.733L67.766 44.7336ZM70.0764 45.5591C70.0806 45.484 70.0964 45.4217 70.1226 45.372C70.1488 45.3229 70.1828 45.286 70.2242 45.263C70.2656 45.2394 70.3082 45.2278 70.3514 45.2278C70.4013 45.2278 70.4493 45.24 70.4962 45.2654C70.5424 45.2902 70.5808 45.3248 70.61 45.369C70.6392 45.4132 70.6538 45.4647 70.6538 45.5234C70.6447 45.6167 70.613 45.6882 70.5583 45.7384C70.5029 45.7881 70.439 45.8129 70.3648 45.8129C70.2924 45.8129 70.2285 45.7905 70.1731 45.7451C70.1177 45.7003 70.0855 45.6379 70.0764 45.5591Z" fill="#0033EA"/>
</svg>
